<svg xmlns="http://www.w3.org/2000/svg" viewBox="0 0 512 512" width="512" height="512">
  <rect width="512" height="512" rx="96" fill="#1f2937"/>
  <g transform="translate(96, 80)">
    <!-- Ticket body -->
    <rect x="0" y="0" width="320" height="352" rx="24" fill="none" stroke="#fff" stroke-width="16"/>
    <!-- Notches -->
    <circle cx="0" cy="220" r="24" fill="#1f2937"/>
    <circle cx="320" cy="220" r="24" fill="#1f2937"/>
    <!-- Perforation line -->
    <line x1="40" y1="220" x2="280" y2="220" stroke="#fff" stroke-width="4" stroke-dasharray="12,8"/>
    <!-- QR Code area -->
    <rect x="95" y="248" width="130" height="130" rx="8" fill="#fff"/>
    <g fill="#1f2937">
      <rect x="107" y="260" width="28" height="28" rx="4"/>
      <rect x="185" y="260" width="28" height="28" rx="4"/>
      <rect x="107" y="338" width="28" height="28" rx="4"/>
      <rect x="145" y="290" width="12" height="12"/>
      <rect x="163" y="290" width="12" height="12"/>
      <rect x="145" y="308" width="12" height="12"/>
      <rect x="181" y="308" width="12" height="12"/>
      <rect x="163" y="326" width="12" height="12"/>
      <rect x="185" y="338" width="28" height="28" rx="4"/>
    </g>
    <!-- Top ticket content lines -->
    <rect x="60" y="48" width="200" height="16" rx="8" fill="#fff"/>
    <rect x="80" y="88" width="160" height="12" rx="6" fill="#fff" opacity="0.6"/>
    <rect x="100" y="120" width="120" height="12" rx="6" fill="#fff" opacity="0.6"/>
    <rect x="90" y="160" width="140" height="12" rx="6" fill="#fff" opacity="0.4"/>
  </g>
</svg>